<svg width="134" height="48" viewBox="0 0 134 48" fill="none" xmlns="http://www.w3.org/2000/svg">
<rect x="0.5" y="0.5" width="133" height="47" rx="7.5" stroke="white"/>
<path d="M31.7973 22.5804C31.8081 21.7457 32.0298 20.9273 32.4418 20.2014C32.8538 19.4754 33.4428 18.8655 34.1539 18.4283C33.7021 17.7831 33.1062 17.2522 32.4134 16.8776C31.7205 16.5031 30.9499 16.2952 30.1627 16.2706C28.4835 16.0944 26.8555 17.2754 25.9998 17.2754C25.1275 17.2754 23.81 16.2881 22.3913 16.3173C21.4736 16.347 20.5793 16.6138 19.7954 17.0919C19.0115 17.5699 18.3649 18.2429 17.9184 19.0452C15.9844 22.3936 17.427 27.3146 19.2796 30.0213C20.2065 31.3466 21.2898 32.8271 22.7072 32.7746C24.0943 32.717 24.6123 31.8901 26.2866 31.8901C27.9454 31.8901 28.4314 32.7746 29.8776 32.7412C31.366 32.717 32.3038 31.4099 33.1981 30.072C33.8641 29.1277 34.3766 28.084 34.7166 26.9795C33.8518 26.6138 33.1139 26.0016 32.5948 25.2193C32.0757 24.437 31.7983 23.5192 31.7973 22.5804Z" fill="white"/>
<path d="M29.0657 14.4906C29.8772 13.5164 30.277 12.2642 30.1802 11C28.9404 11.1302 27.7951 11.7228 26.9726 12.6596C26.5705 13.1173 26.2625 13.6497 26.0662 14.2265C25.87 14.8033 25.7893 15.413 25.8289 16.021C26.449 16.0274 27.0626 15.893 27.6232 15.6279C28.1839 15.3628 28.6771 14.9739 29.0657 14.4906Z" fill="white"/>
<path d="M49.332 29.7027H44.5986L43.4619 33.0591H41.457L45.9404 20.6411H48.0234L52.5068 33.0591H50.4678L49.332 29.7027ZM45.0889 28.1539H48.8409L46.9913 22.7066H46.9395L45.0889 28.1539Z" fill="white"/>
<path d="M62.1895 28.5328C62.1895 31.3463 60.6836 33.1539 58.4111 33.1539C57.8355 33.184 57.263 33.0514 56.7592 32.7712C56.2554 32.4911 55.8407 32.0747 55.5625 31.5699H55.5195V36.0542H53.6611V24.0054H55.46V25.5113H55.4941C55.7851 25.0088 56.2068 24.5946 56.7145 24.3128C57.2221 24.0309 57.7966 23.892 58.377 23.9107C60.6748 23.9107 62.1895 25.7271 62.1895 28.5328ZM60.2793 28.5328C60.2793 26.6998 59.332 25.4947 57.8867 25.4947C56.4668 25.4947 55.5117 26.7252 55.5117 28.5328C55.5117 30.357 56.4668 31.5787 57.8867 31.5787C59.332 31.5787 60.2793 30.3824 60.2793 28.5328Z" fill="white"/>
<path d="M72.1543 28.5328C72.1543 31.3463 70.6484 33.1539 68.376 33.1539C67.8003 33.184 67.2278 33.0514 66.724 32.7712C66.2202 32.4911 65.8055 32.0747 65.5273 31.5699H65.4843V36.0542H63.6259V24.0054H65.4248V25.5113H65.4589C65.7499 25.0088 66.1716 24.5946 66.6793 24.3128C67.1869 24.0309 67.7614 23.892 68.3418 23.9107C70.6396 23.9107 72.1543 25.7271 72.1543 28.5328ZM70.2441 28.5328C70.2441 26.6998 69.2969 25.4947 67.8516 25.4947C66.4316 25.4947 65.4766 26.7252 65.4766 28.5328C65.4766 30.357 66.4316 31.5787 67.8516 31.5787C69.2969 31.5787 70.2441 30.3824 70.2441 28.5328Z" fill="white"/>
<path d="M78.7402 29.5992C78.8779 30.8306 80.0742 31.6392 81.709 31.6392C83.2754 31.6392 84.4023 30.8306 84.4023 29.7202C84.4023 28.7564 83.7227 28.1792 82.1133 27.7837L80.5039 27.396C78.2236 26.8452 77.165 25.7788 77.165 24.0483C77.165 21.9058 79.0322 20.4341 81.6836 20.4341C84.3076 20.4341 86.1064 21.9058 86.167 24.0483H84.291C84.1787 22.8091 83.1543 22.061 81.6572 22.061C80.1601 22.061 79.1357 22.8179 79.1357 23.9194C79.1357 24.7974 79.79 25.314 81.3906 25.7094L82.7588 26.0454C85.3066 26.6479 86.3652 27.6714 86.3652 29.4878C86.3652 31.811 84.5146 33.2661 81.5713 33.2661C78.8173 33.2661 76.958 31.8452 76.8379 29.5991L78.7402 29.5992Z" fill="white"/>
<path d="M90.376 21.8628V24.0054H92.0976V25.4771H90.376V30.4683C90.376 31.2437 90.7207 31.605 91.4775 31.605C91.6819 31.6015 91.886 31.5871 92.0889 31.562V33.0249C91.7486 33.0885 91.4027 33.1173 91.0566 33.1109C89.2236 33.1109 88.5088 32.4224 88.5088 30.6665V25.4771H87.1924V24.0054H88.5088V21.8628H90.376Z" fill="white"/>
<path d="M93.0948 28.5328C93.0948 25.6841 94.7725 23.8941 97.3887 23.8941C100.014 23.8941 101.684 25.6841 101.684 28.5328C101.684 31.3892 100.022 33.1714 97.3887 33.1714C94.7559 33.1714 93.0948 31.3892 93.0948 28.5328ZM99.7901 28.5328C99.7901 26.5787 98.8946 25.4254 97.3887 25.4254C95.8828 25.4254 94.9883 26.5875 94.9883 28.5328C94.9883 30.4947 95.8828 31.6392 97.3887 31.6392C98.8946 31.6392 99.7901 30.4947 99.7901 28.5328Z" fill="white"/>
<path d="M103.216 24.0054H104.988V25.5464H105.031C105.151 25.0651 105.433 24.6398 105.83 24.3419C106.226 24.044 106.713 23.8918 107.209 23.9107C107.423 23.9099 107.637 23.9332 107.846 23.98V25.7183C107.575 25.6357 107.293 25.5978 107.011 25.606C106.741 25.595 106.472 25.6427 106.222 25.7455C105.972 25.8484 105.747 26.0042 105.563 26.202C105.379 26.3999 105.24 26.6353 105.156 26.892C105.072 27.1486 105.044 27.4205 105.074 27.689V33.0591H103.216L103.216 24.0054Z" fill="white"/>
<path d="M116.414 30.4C116.164 32.0435 114.563 33.1714 112.516 33.1714C109.882 33.1714 108.247 31.4068 108.247 28.5757C108.247 25.7359 109.891 23.8941 112.438 23.8941C114.942 23.8941 116.518 25.6148 116.518 28.3599V28.9966H110.123V29.1089C110.094 29.4421 110.135 29.7778 110.245 30.0936C110.356 30.4095 110.532 30.6983 110.762 30.9408C110.992 31.1834 111.272 31.3741 111.582 31.5004C111.891 31.6267 112.224 31.6857 112.559 31.6734C112.998 31.7145 113.438 31.6128 113.815 31.3834C114.192 31.1539 114.484 30.809 114.649 30.3999L116.414 30.4ZM110.132 27.6978H114.658C114.675 27.3982 114.629 27.0984 114.525 26.8172C114.42 26.536 114.258 26.2794 114.05 26.0637C113.841 25.8479 113.591 25.6776 113.313 25.5634C113.036 25.4491 112.737 25.3935 112.438 25.4C112.135 25.3981 111.835 25.4563 111.555 25.571C111.275 25.6858 111.02 25.8548 110.806 26.0685C110.592 26.2821 110.422 26.5361 110.306 26.8157C110.19 27.0954 110.131 27.3952 110.132 27.6978Z" fill="white"/>
<path d="M44.856 11.294C45.2456 11.266 45.6365 11.3249 46.0006 11.4663C46.3648 11.6078 46.6929 11.8282 46.9615 12.1119C47.2301 12.3955 47.4324 12.7352 47.5538 13.1065C47.6752 13.4777 47.7127 13.8713 47.6636 14.2588C47.6636 16.1651 46.6333 17.2608 44.856 17.2608H42.7007V11.294H44.856ZM43.6274 16.417H44.7524C45.0308 16.4336 45.3095 16.388 45.568 16.2834C45.8265 16.1788 46.0585 16.0178 46.247 15.8123C46.4355 15.6067 46.5758 15.3617 46.6576 15.0951C46.7395 14.8284 46.7609 14.5469 46.7202 14.271C46.7579 13.9962 46.7344 13.7164 46.6512 13.4517C46.5681 13.1871 46.4275 12.9441 46.2394 12.7401C46.0514 12.5362 45.8205 12.3764 45.5634 12.2722C45.3064 12.1679 45.0294 12.1218 44.7524 12.1372H43.6274V16.417Z" fill="white"/>
<path d="M48.7104 15.0073C48.6821 14.7114 48.716 14.4129 48.8098 14.1308C48.9037 13.8487 49.0554 13.5894 49.2554 13.3694C49.4553 13.1494 49.699 12.9736 49.9709 12.8534C50.2427 12.7331 50.5367 12.671 50.834 12.671C51.1312 12.671 51.4252 12.7331 51.6971 12.8534C51.9689 12.9736 52.2126 13.1494 52.4126 13.3694C52.6125 13.5894 52.7643 13.8487 52.8581 14.1308C52.952 14.4129 52.9858 14.7114 52.9575 15.0073C52.9864 15.3036 52.9529 15.6025 52.8593 15.8851C52.7657 16.1676 52.6141 16.4274 52.4141 16.6478C52.2141 16.8682 51.9702 17.0444 51.6981 17.1649C51.4259 17.2854 51.1316 17.3477 50.834 17.3477C50.5364 17.3477 50.242 17.2854 49.9699 17.1649C49.6978 17.0444 49.4539 16.8682 49.2539 16.6478C49.0539 16.4274 48.9022 16.1676 48.8086 15.8851C48.715 15.6025 48.6816 15.3036 48.7104 15.0073ZM52.0434 15.0073C52.0434 14.0313 51.605 13.4605 50.8354 13.4605C50.063 13.4605 49.6284 14.0313 49.6284 15.0073C49.6284 15.9912 50.063 16.5576 50.8354 16.5576C51.605 16.5576 52.0434 15.9873 52.0434 15.0073Z" fill="white"/>
<path d="M58.603 17.2607H57.6812L56.7505 13.9443H56.6802L55.7534 17.2607H54.8403L53.5991 12.7578H54.5005L55.3071 16.1938H55.3735L56.2993 12.7578H57.1519L58.0776 16.1938H58.148L58.9507 12.7578H59.8394L58.603 17.2607Z" fill="white"/>
<path d="M60.8833 12.7578H61.7388V13.4731H61.8052C61.9178 13.2162 62.1078 13.0009 62.3487 12.8571C62.5896 12.7132 62.8693 12.6482 63.1489 12.6709C63.368 12.6544 63.588 12.6875 63.7926 12.7676C63.9972 12.8477 64.1812 12.9728 64.3309 13.1336C64.4805 13.2944 64.5921 13.4869 64.6573 13.6967C64.7225 13.9065 64.7397 14.1283 64.7075 14.3457V17.2607H63.8188V14.5689C63.8188 13.8452 63.5044 13.4854 62.8472 13.4854C62.6984 13.4784 62.5499 13.5037 62.4118 13.5596C62.2738 13.6154 62.1494 13.7004 62.0473 13.8088C61.9452 13.9172 61.8677 14.0464 61.8202 14.1875C61.7727 14.3286 61.7562 14.4784 61.772 14.6265V17.2607H60.8833L60.8833 12.7578Z" fill="white"/>
<path d="M66.1235 11H67.0122V17.2607H66.1235V11Z" fill="white"/>
<path d="M68.2475 15.0073C68.2193 14.7114 68.2531 14.4128 68.347 14.1307C68.4409 13.8487 68.5926 13.5893 68.7926 13.3693C68.9926 13.1493 69.2363 12.9736 69.5082 12.8533C69.78 12.733 70.074 12.6709 70.3713 12.6709C70.6686 12.6709 70.9626 12.733 71.2345 12.8533C71.5064 12.9736 71.7501 13.1493 71.9501 13.3693C72.15 13.5893 72.3018 13.8487 72.3957 14.1307C72.4895 14.4128 72.5234 14.7114 72.4951 15.0073C72.5239 15.3036 72.4904 15.6026 72.3968 15.8851C72.3032 16.1676 72.1515 16.4274 71.9515 16.6478C71.7515 16.8682 71.5076 17.0444 71.2354 17.1649C70.9633 17.2854 70.669 17.3477 70.3713 17.3477C70.0737 17.3477 69.7794 17.2854 69.5072 17.1649C69.2351 17.0444 68.9912 16.8682 68.7912 16.6478C68.5912 16.4274 68.4395 16.1676 68.3458 15.8851C68.2522 15.6026 68.2187 15.3036 68.2475 15.0073ZM71.5805 15.0073C71.5805 14.0313 71.1421 13.4605 70.3725 13.4605C69.6001 13.4605 69.1655 14.0313 69.1655 15.0073C69.1655 15.9912 69.6001 16.5576 70.3725 16.5576C71.1421 16.5576 71.5805 15.9873 71.5805 15.0073Z" fill="white"/>
<path d="M73.4307 15.9873C73.4307 15.1768 74.0342 14.7095 75.1055 14.6431L76.3252 14.5728V14.1841C76.3252 13.7085 76.0107 13.44 75.4033 13.44C74.9072 13.44 74.5635 13.6221 74.4648 13.9404H73.6045C73.6953 13.167 74.4229 12.6709 75.4443 12.6709C76.5732 12.6709 77.21 13.2329 77.21 14.1841V17.2608H76.3545V16.6279H76.2842C76.1415 16.8549 75.9411 17.04 75.7034 17.1642C75.4658 17.2884 75.1995 17.3473 74.9316 17.3349C74.7426 17.3546 74.5515 17.3344 74.3708 17.2757C74.19 17.217 74.0236 17.1211 73.8822 16.9942C73.7407 16.8672 73.6275 16.712 73.5497 16.5386C73.472 16.3652 73.4314 16.1774 73.4307 15.9873ZM76.3252 15.6025V15.2261L75.2256 15.2964C74.6055 15.3379 74.3242 15.5488 74.3242 15.9458C74.3242 16.3511 74.6758 16.5869 75.1592 16.5869C75.3009 16.6013 75.4439 16.587 75.5799 16.5449C75.7159 16.5028 75.8421 16.4338 75.9509 16.3419C76.0597 16.2501 76.1489 16.1373 76.2132 16.0103C76.2775 15.8833 76.3156 15.7446 76.3252 15.6025Z" fill="white"/>
<path d="M78.3779 15.0073C78.3779 13.5845 79.1094 12.6831 80.2471 12.6831C80.5285 12.6702 80.8078 12.7376 81.0523 12.8775C81.2968 13.0173 81.4965 13.224 81.6279 13.4731H81.6943V11H82.583V17.2607H81.7314V16.5493H81.6611C81.5195 16.7968 81.3129 17.0008 81.0637 17.1393C80.8144 17.2778 80.532 17.3455 80.2471 17.3349C79.1016 17.335 78.3779 16.4336 78.3779 15.0073ZM79.2959 15.0073C79.2959 15.9624 79.7461 16.5371 80.4991 16.5371C81.2481 16.5371 81.711 15.9541 81.711 15.0112C81.711 14.0728 81.2432 13.4815 80.4991 13.4815C79.751 13.4815 79.2959 14.0601 79.2959 15.0073Z" fill="white"/>
<path d="M86.2598 15.0073C86.2315 14.7114 86.2653 14.4129 86.3591 14.1308C86.453 13.8487 86.6047 13.5894 86.8047 13.3694C87.0046 13.1494 87.2483 12.9736 87.5202 12.8534C87.792 12.7331 88.086 12.671 88.3833 12.671C88.6806 12.671 88.9746 12.7331 89.2464 12.8534C89.5183 12.9736 89.762 13.1494 89.9619 13.3694C90.1618 13.5894 90.3136 13.8487 90.4074 14.1308C90.5013 14.4129 90.5351 14.7114 90.5068 15.0073C90.5357 15.3036 90.5022 15.6025 90.4086 15.8851C90.315 16.1676 90.1634 16.4274 89.9634 16.6478C89.7634 16.8682 89.5195 17.0444 89.2474 17.1649C88.9753 17.2854 88.6809 17.3477 88.3833 17.3477C88.0857 17.3477 87.7913 17.2854 87.5192 17.1649C87.2471 17.0444 87.0032 16.8682 86.8032 16.6478C86.6032 16.4274 86.4515 16.1676 86.358 15.8851C86.2644 15.6025 86.2309 15.3036 86.2598 15.0073ZM89.5928 15.0073C89.5928 14.0313 89.1543 13.4605 88.3848 13.4605C87.6123 13.4605 87.1778 14.0313 87.1778 15.0073C87.1778 15.9912 87.6123 16.5576 88.3848 16.5576C89.1543 16.5576 89.5928 15.9873 89.5928 15.0073Z" fill="white"/>
<path d="M91.6992 12.7578H92.5547V13.4731H92.6211C92.7337 13.2162 92.9237 13.0009 93.1646 12.8571C93.4055 12.7132 93.6852 12.6482 93.9648 12.6709C94.1839 12.6544 94.4039 12.6875 94.6085 12.7676C94.8131 12.8477 94.9971 12.9728 95.1468 13.1336C95.2965 13.2944 95.408 13.4869 95.4732 13.6967C95.5384 13.9065 95.5556 14.1283 95.5234 14.3457V17.2607H94.6348V14.5689C94.6348 13.8452 94.3203 13.4854 93.6631 13.4854C93.5143 13.4784 93.3658 13.5037 93.2278 13.5596C93.0897 13.6154 92.9654 13.7004 92.8632 13.8088C92.7611 13.9172 92.6836 14.0464 92.6361 14.1875C92.5886 14.3286 92.5721 14.4784 92.5879 14.6265V17.2607H91.6992V12.7578Z" fill="white"/>
<path d="M100.545 11.6367V12.7783H101.521V13.5269H100.545V15.8423C100.545 16.314 100.739 16.5205 101.182 16.5205C101.295 16.5202 101.408 16.5133 101.521 16.5V17.2402C101.361 17.2688 101.199 17.284 101.037 17.2856C100.049 17.2856 99.6553 16.938 99.6553 16.0698V13.5268H98.9404V12.7783H99.6553V11.6367H100.545Z" fill="white"/>
<path d="M102.734 11H103.615V13.4815H103.686C103.804 13.2221 103.999 13.0055 104.245 12.8612C104.49 12.7168 104.775 12.6518 105.059 12.6748C105.277 12.6629 105.494 12.6993 105.697 12.7814C105.899 12.8634 106.081 12.9891 106.229 13.1494C106.377 13.3098 106.488 13.5008 106.554 13.709C106.619 13.9171 106.638 14.1372 106.609 14.3535V17.2607H105.72V14.5728C105.72 13.8535 105.385 13.4893 104.757 13.4893C104.604 13.4767 104.451 13.4977 104.307 13.5508C104.163 13.6038 104.033 13.6877 103.925 13.7964C103.817 13.9051 103.734 14.0362 103.682 14.1803C103.629 14.3244 103.61 14.4782 103.623 14.6308V17.2607H102.734L102.734 11Z" fill="white"/>
<path d="M111.791 16.0449C111.67 16.4565 111.409 16.8125 111.052 17.0506C110.695 17.2888 110.266 17.3939 109.84 17.3477C109.543 17.3555 109.248 17.2987 108.976 17.1811C108.703 17.0636 108.46 16.8882 108.262 16.6671C108.064 16.4459 107.916 16.1844 107.83 15.9005C107.743 15.6167 107.719 15.3174 107.76 15.0234C107.72 14.7286 107.745 14.4286 107.831 14.144C107.918 13.8593 108.064 13.5965 108.261 13.3734C108.458 13.1504 108.7 12.9722 108.972 12.851C109.244 12.7298 109.538 12.6684 109.836 12.6709C111.089 12.6709 111.845 13.5269 111.845 14.9409V15.251H108.665V15.3008C108.651 15.466 108.672 15.6324 108.726 15.7891C108.78 15.9459 108.866 16.0896 108.979 16.211C109.092 16.3325 109.229 16.429 109.382 16.4944C109.534 16.5598 109.698 16.5926 109.864 16.5908C110.077 16.6163 110.292 16.578 110.483 16.4808C110.674 16.3836 110.831 16.2319 110.936 16.0449L111.791 16.0449ZM108.665 14.5938H110.939C110.951 14.4426 110.93 14.2908 110.879 14.1481C110.828 14.0054 110.748 13.8749 110.644 13.7651C110.539 13.6552 110.413 13.5684 110.273 13.5102C110.133 13.452 109.983 13.4238 109.831 13.4273C109.677 13.4253 109.525 13.4542 109.382 13.5121C109.24 13.5701 109.111 13.6559 109.002 13.7646C108.893 13.8734 108.808 14.0027 108.75 14.1451C108.692 14.2875 108.663 14.4401 108.665 14.5938Z" fill="white"/>
</svg>
