<svg width="185" height="152" viewBox="0 0 185 152" fill="none" xmlns="http://www.w3.org/2000/svg">
<rect width="185" height="152" rx="16" fill="white"/>
<rect x="16" y="18" width="20" height="20" rx="10" fill="#4F7EF7"/>
<path fill-rule="evenodd" clip-rule="evenodd" d="M31.3207 23.9919C31.7457 24.4595 31.7227 25.1941 31.2694 25.6325L25.2694 31.4361C24.8367 31.8546 24.1633 31.8546 23.7306 31.4361L20.7306 28.5343C20.2773 28.0958 20.2543 27.3613 20.6793 26.8936C21.1042 26.426 21.8162 26.4023 22.2694 26.8407L24.5 28.9983L29.7306 23.9389C30.1838 23.5005 30.8958 23.5242 31.3207 23.9919Z" fill="white"/>
<rect x="16" y="66" width="20" height="20" rx="10" fill="#4F7EF7"/>
<path fill-rule="evenodd" clip-rule="evenodd" d="M31.3207 71.9919C31.7457 72.4595 31.7227 73.1941 31.2694 73.6325L25.2694 79.4361C24.8367 79.8546 24.1633 79.8546 23.7306 79.4361L20.7306 76.5343C20.2773 76.0958 20.2543 75.3613 20.6793 74.8936C21.1042 74.426 21.8162 74.4023 22.2694 74.8407L24.5 76.9983L29.7306 71.9389C30.1838 71.5005 30.8958 71.5242 31.3207 71.9919Z" fill="white"/>
<rect x="16" y="114" width="20" height="20" rx="10" fill="#4F7EF7"/>
<path fill-rule="evenodd" clip-rule="evenodd" d="M31.3207 119.992C31.7457 120.46 31.7227 121.194 31.2694 121.633L25.2694 127.436C24.8367 127.855 24.1633 127.855 23.7306 127.436L20.7306 124.534C20.2773 124.096 20.2543 123.361 20.6793 122.894C21.1042 122.426 21.8162 122.402 22.2694 122.841L24.5 124.998L29.7306 119.939C30.1838 119.5 30.8958 119.524 31.3207 119.992Z" fill="white"/>
<path d="M49.696 26H48.2983L51.4389 17.2727H52.9602L56.1009 26H54.7031L52.2358 18.858H52.1676L49.696 26ZM49.9304 22.5824H54.4645V23.6903H49.9304V22.5824ZM59.6037 26.1278C59.0753 26.1278 58.6037 25.9929 58.1889 25.723C57.777 25.4503 57.4531 25.0625 57.2173 24.5597C56.9844 24.054 56.8679 23.4474 56.8679 22.7401C56.8679 22.0327 56.9858 21.4276 57.2216 20.9247C57.4602 20.4219 57.7869 20.0369 58.2017 19.7699C58.6165 19.5028 59.0866 19.3693 59.6122 19.3693C60.0185 19.3693 60.3452 19.4375 60.5923 19.5739C60.8423 19.7074 61.0355 19.8636 61.1719 20.0426C61.3111 20.2216 61.419 20.3793 61.4957 20.5156H61.5724V17.2727H62.8466V26H61.6023V24.9815H61.4957C61.419 25.1207 61.3082 25.2798 61.1634 25.4588C61.0213 25.6378 60.8253 25.794 60.5753 25.9276C60.3253 26.0611 60.0014 26.1278 59.6037 26.1278ZM59.8849 25.0412C60.2514 25.0412 60.5611 24.9446 60.8139 24.7514C61.0696 24.5554 61.2628 24.2841 61.3935 23.9375C61.527 23.5909 61.5938 23.1875 61.5938 22.7273C61.5938 22.2727 61.5284 21.875 61.3977 21.5341C61.267 21.1932 61.0753 20.9276 60.8224 20.7372C60.5696 20.5469 60.2571 20.4517 59.8849 20.4517C59.5014 20.4517 59.1818 20.5511 58.9261 20.75C58.6705 20.9489 58.4773 21.2202 58.3466 21.5639C58.2188 21.9077 58.1548 22.2955 58.1548 22.7273C58.1548 23.1648 58.2202 23.5582 58.3509 23.9077C58.4815 24.2571 58.6747 24.5341 58.9304 24.7386C59.1889 24.9403 59.5071 25.0412 59.8849 25.0412ZM64.6651 19.4545H65.9393V26.4261C65.9393 26.8636 65.8597 27.233 65.7006 27.5341C65.5444 27.8352 65.3114 28.0639 65.0018 28.2202C64.695 28.3764 64.3157 28.4545 63.864 28.4545C63.8185 28.4545 63.7759 28.4545 63.7362 28.4545C63.6935 28.4545 63.6495 28.4531 63.604 28.4503V27.3551C63.6438 27.3551 63.6793 27.3551 63.7106 27.3551C63.739 27.3551 63.7717 27.3551 63.8086 27.3551C64.1097 27.3551 64.3271 27.2741 64.4606 27.1122C64.5969 26.9531 64.6651 26.7216 64.6651 26.4176V19.4545ZM65.2958 18.4446C65.0742 18.4446 64.8839 18.3707 64.7248 18.223C64.5685 18.0724 64.4904 17.8935 64.4904 17.6861C64.4904 17.4759 64.5685 17.2969 64.7248 17.1491C64.8839 16.9986 65.0742 16.9233 65.2958 16.9233C65.5174 16.9233 65.7063 16.9986 65.8626 17.1491C66.0217 17.2969 66.1012 17.4759 66.1012 17.6861C66.1012 17.8935 66.0217 18.0724 65.8626 18.223C65.7063 18.3707 65.5174 18.4446 65.2958 18.4446ZM71.7997 23.2855V19.4545H73.0781V26H71.8253V24.8665H71.7571C71.6065 25.2159 71.3651 25.5071 71.0327 25.7401C70.7031 25.9702 70.2926 26.0852 69.8011 26.0852C69.3807 26.0852 69.0085 25.9929 68.6847 25.8082C68.3636 25.6207 68.1108 25.3438 67.9261 24.9773C67.7443 24.6108 67.6534 24.1577 67.6534 23.6179V19.4545H68.9276V23.4645C68.9276 23.9105 69.0511 24.2656 69.2983 24.5298C69.5455 24.794 69.8665 24.9261 70.2614 24.9261C70.5 24.9261 70.7372 24.8665 70.973 24.7472C71.2116 24.6278 71.4091 24.4474 71.5653 24.206C71.7244 23.9645 71.8026 23.6577 71.7997 23.2855ZM79.695 21.0526L78.5401 21.2571C78.4918 21.1094 78.4151 20.9687 78.31 20.8352C78.2077 20.7017 78.0685 20.5923 77.8924 20.5071C77.7163 20.4219 77.4961 20.3793 77.2319 20.3793C76.8711 20.3793 76.57 20.4602 76.3285 20.6222C76.087 20.7812 75.9663 20.9872 75.9663 21.2401C75.9663 21.4588 76.0472 21.6349 76.2092 21.7685C76.3711 21.902 76.6325 22.0114 76.9933 22.0966L78.033 22.3352C78.6353 22.4744 79.0842 22.6889 79.3796 22.9787C79.6751 23.2685 79.8228 23.6449 79.8228 24.108C79.8228 24.5 79.7092 24.8494 79.4819 25.1562C79.2575 25.4602 78.9435 25.6989 78.5401 25.8722C78.1396 26.0455 77.6751 26.1321 77.1467 26.1321C76.4137 26.1321 75.8157 25.9759 75.3526 25.6634C74.8896 25.348 74.6055 24.9006 74.5004 24.321L75.7319 24.1335C75.8086 24.4545 75.9663 24.6974 76.2049 24.8622C76.4435 25.0241 76.7546 25.1051 77.1381 25.1051C77.5558 25.1051 77.8896 25.0185 78.1396 24.8452C78.3896 24.669 78.5146 24.4545 78.5146 24.2017C78.5146 23.9972 78.4379 23.8253 78.2844 23.6861C78.1339 23.5469 77.9023 23.4418 77.5898 23.3707L76.4819 23.1278C75.8711 22.9886 75.4194 22.767 75.1268 22.4631C74.837 22.1591 74.6921 21.7741 74.6921 21.3082C74.6921 20.9219 74.8001 20.5838 75.016 20.294C75.2319 20.0043 75.5302 19.7784 75.9109 19.6165C76.2915 19.4517 76.7276 19.3693 77.2191 19.3693C77.9265 19.3693 78.4833 19.5227 78.8896 19.8295C79.2958 20.1335 79.5643 20.5412 79.695 21.0526ZM84.2791 19.4545V20.4773H80.7038V19.4545H84.2791ZM81.6626 17.8864H82.9368V24.0781C82.9368 24.3253 82.9737 24.5114 83.0476 24.6364C83.1214 24.7585 83.2166 24.8423 83.3331 24.8878C83.4524 24.9304 83.5817 24.9517 83.7209 24.9517C83.8232 24.9517 83.9126 24.9446 83.9893 24.9304C84.0661 24.9162 84.1257 24.9048 84.1683 24.8963L84.3984 25.9489C84.3246 25.9773 84.2195 26.0057 84.0831 26.0341C83.9467 26.0653 83.7763 26.0824 83.5717 26.0852C83.2365 26.0909 82.924 26.0312 82.6342 25.9062C82.3445 25.7812 82.1101 25.5881 81.9311 25.3267C81.7521 25.0653 81.6626 24.7372 81.6626 24.3423V17.8864ZM93.7692 21.0526L92.6143 21.2571C92.5661 21.1094 92.4893 20.9687 92.3842 20.8352C92.282 20.7017 92.1428 20.5923 91.9666 20.5071C91.7905 20.4219 91.5703 20.3793 91.3061 20.3793C90.9453 20.3793 90.6442 20.4602 90.4027 20.6222C90.1612 20.7812 90.0405 20.9872 90.0405 21.2401C90.0405 21.4588 90.1214 21.6349 90.2834 21.7685C90.4453 21.902 90.7067 22.0114 91.0675 22.0966L92.1072 22.3352C92.7095 22.4744 93.1584 22.6889 93.4538 22.9787C93.7493 23.2685 93.897 23.6449 93.897 24.108C93.897 24.5 93.7834 24.8494 93.5561 25.1562C93.3317 25.4602 93.0178 25.6989 92.6143 25.8722C92.2138 26.0455 91.7493 26.1321 91.2209 26.1321C90.4879 26.1321 89.8899 25.9759 89.4268 25.6634C88.9638 25.348 88.6797 24.9006 88.5746 24.321L89.8061 24.1335C89.8828 24.4545 90.0405 24.6974 90.2791 24.8622C90.5178 25.0241 90.8288 25.1051 91.2124 25.1051C91.63 25.1051 91.9638 25.0185 92.2138 24.8452C92.4638 24.669 92.5888 24.4545 92.5888 24.2017C92.5888 23.9972 92.5121 23.8253 92.3587 23.6861C92.2081 23.5469 91.9766 23.4418 91.6641 23.3707L90.5561 23.1278C89.9453 22.9886 89.4936 22.767 89.201 22.4631C88.9112 22.1591 88.7663 21.7741 88.7663 21.3082C88.7663 20.9219 88.8743 20.5838 89.0902 20.294C89.3061 20.0043 89.6044 19.7784 89.9851 19.6165C90.3658 19.4517 90.8018 19.3693 91.2933 19.3693C92.0007 19.3693 92.5575 19.5227 92.9638 19.8295C93.37 20.1335 93.6385 20.5412 93.7692 21.0526ZM95.2979 28.4545V19.4545H96.5423V20.5156H96.6488C96.7227 20.3793 96.8292 20.2216 96.9684 20.0426C97.1076 19.8636 97.3008 19.7074 97.5479 19.5739C97.7951 19.4375 98.1218 19.3693 98.5281 19.3693C99.0565 19.3693 99.5281 19.5028 99.9428 19.7699C100.358 20.0369 100.683 20.4219 100.919 20.9247C101.157 21.4276 101.277 22.0327 101.277 22.7401C101.277 23.4474 101.159 24.054 100.923 24.5597C100.687 25.0625 100.363 25.4503 99.9513 25.723C99.5394 25.9929 99.0692 26.1278 98.5408 26.1278C98.1431 26.1278 97.8178 26.0611 97.565 25.9276C97.315 25.794 97.119 25.6378 96.9769 25.4588C96.8349 25.2798 96.7255 25.1207 96.6488 24.9815H96.5721V28.4545H95.2979ZM96.5465 22.7273C96.5465 23.1875 96.6133 23.5909 96.7468 23.9375C96.8803 24.2841 97.0735 24.5554 97.3263 24.7514C97.5792 24.9446 97.8888 25.0412 98.2553 25.0412C98.636 25.0412 98.9542 24.9403 99.2099 24.7386C99.4656 24.5341 99.6587 24.2571 99.7894 23.9077C99.9229 23.5582 99.9897 23.1648 99.9897 22.7273C99.9897 22.2955 99.9244 21.9077 99.7937 21.5639C99.6658 21.2202 99.4727 20.9489 99.2141 20.75C98.9585 20.5511 98.6388 20.4517 98.2553 20.4517C97.886 20.4517 97.5735 20.5469 97.3178 20.7372C97.065 20.9276 96.8732 21.1932 96.7425 21.5341C96.6119 21.875 96.5465 22.2727 96.5465 22.7273ZM104.609 26.1449C104.194 26.1449 103.819 26.0682 103.484 25.9148C103.149 25.7585 102.883 25.5327 102.687 25.2372C102.494 24.9418 102.397 24.5795 102.397 24.1506C102.397 23.7812 102.468 23.4773 102.61 23.2386C102.752 23 102.944 22.8111 103.186 22.6719C103.427 22.5327 103.697 22.4276 103.995 22.3565C104.294 22.2855 104.598 22.2315 104.907 22.1946C105.299 22.1491 105.618 22.1122 105.862 22.0838C106.106 22.0526 106.284 22.0028 106.395 21.9347C106.505 21.8665 106.561 21.7557 106.561 21.6023V21.5724C106.561 21.2003 106.456 20.9119 106.245 20.7074C106.038 20.5028 105.728 20.4006 105.316 20.4006C104.887 20.4006 104.549 20.4957 104.302 20.6861C104.058 20.8736 103.889 21.0824 103.795 21.3125L102.598 21.0398C102.74 20.642 102.947 20.321 103.22 20.0767C103.495 19.8295 103.812 19.6506 104.17 19.5398C104.528 19.4261 104.904 19.3693 105.299 19.3693C105.561 19.3693 105.838 19.4006 106.13 19.4631C106.426 19.5227 106.701 19.6335 106.957 19.7955C107.216 19.9574 107.427 20.1889 107.592 20.4901C107.757 20.7884 107.839 21.1761 107.839 21.6534V26H106.595V25.1051H106.544C106.461 25.2699 106.338 25.4318 106.173 25.5909C106.008 25.75 105.797 25.8821 105.538 25.9872C105.279 26.0923 104.97 26.1449 104.609 26.1449ZM104.886 25.1222C105.238 25.1222 105.539 25.0526 105.789 24.9134C106.042 24.7741 106.234 24.5923 106.365 24.3679C106.498 24.1406 106.565 23.8977 106.565 23.6392V22.7955C106.52 22.8409 106.431 22.8835 106.301 22.9233C106.173 22.9602 106.027 22.9929 105.862 23.0213C105.697 23.0469 105.537 23.071 105.38 23.0938C105.224 23.1136 105.093 23.1307 104.988 23.1449C104.741 23.1761 104.515 23.2287 104.311 23.3026C104.109 23.3764 103.947 23.483 103.825 23.6222C103.706 23.7585 103.646 23.9403 103.646 24.1676C103.646 24.483 103.762 24.7216 103.995 24.8835C104.228 25.0426 104.525 25.1222 104.886 25.1222ZM112.293 26.1321C111.66 26.1321 111.114 25.9886 110.657 25.7017C110.202 25.4119 109.853 25.0128 109.609 24.5043C109.364 23.9957 109.242 23.4134 109.242 22.7571C109.242 22.0923 109.367 21.5057 109.617 20.9972C109.867 20.4858 110.219 20.0866 110.674 19.7997C111.129 19.5128 111.664 19.3693 112.281 19.3693C112.778 19.3693 113.221 19.4616 113.61 19.6463C113.999 19.8281 114.313 20.0838 114.552 20.4134C114.793 20.7429 114.937 21.1278 114.982 21.5682H113.742C113.674 21.2614 113.518 20.9972 113.273 20.7756C113.032 20.554 112.708 20.4432 112.302 20.4432C111.947 20.4432 111.636 20.5369 111.369 20.7244C111.104 20.9091 110.898 21.1733 110.751 21.517C110.603 21.858 110.529 22.2614 110.529 22.7273C110.529 23.2045 110.602 23.6165 110.746 23.9631C110.891 24.3097 111.096 24.5781 111.36 24.7685C111.627 24.9588 111.941 25.054 112.302 25.054C112.543 25.054 112.762 25.0099 112.958 24.9219C113.157 24.831 113.323 24.7017 113.457 24.5341C113.593 24.3665 113.688 24.1648 113.742 23.929H114.982C114.937 24.3523 114.799 24.7301 114.569 25.0625C114.339 25.3949 114.031 25.6562 113.644 25.8466C113.261 26.0369 112.81 26.1321 112.293 26.1321ZM119.166 26.1321C118.521 26.1321 117.966 25.9943 117.5 25.7188C117.037 25.4403 116.679 25.0497 116.426 24.5469C116.176 24.0412 116.051 23.4489 116.051 22.7699C116.051 22.0994 116.176 21.5085 116.426 20.9972C116.679 20.4858 117.031 20.0866 117.483 19.7997C117.937 19.5128 118.468 19.3693 119.076 19.3693C119.446 19.3693 119.804 19.4304 120.15 19.5526C120.497 19.6747 120.808 19.8665 121.083 20.1278C121.359 20.3892 121.576 20.7287 121.735 21.1463C121.895 21.5611 121.974 22.0653 121.974 22.6591V23.1108H116.771V22.1562H120.725C120.725 21.821 120.657 21.5241 120.521 21.2656C120.385 21.0043 120.193 20.7983 119.946 20.6477C119.701 20.4972 119.414 20.4219 119.085 20.4219C118.727 20.4219 118.414 20.5099 118.147 20.6861C117.883 20.8594 117.679 21.0866 117.534 21.3679C117.392 21.6463 117.321 21.9489 117.321 22.2756V23.0213C117.321 23.4588 117.397 23.831 117.551 24.1378C117.707 24.4446 117.924 24.679 118.203 24.8409C118.481 25 118.806 25.0795 119.179 25.0795C119.42 25.0795 119.64 25.0455 119.839 24.9773C120.038 24.9062 120.21 24.8011 120.355 24.6619C120.5 24.5227 120.61 24.3509 120.687 24.1463L121.893 24.3636C121.797 24.7187 121.623 25.0298 121.373 25.2969C121.126 25.5611 120.815 25.767 120.44 25.9148C120.068 26.0597 119.643 26.1321 119.166 26.1321Z" fill="#161639"/>
<rect x="48" y="34" width="98" height="8" rx="4" fill="#EFEFF1"/>
<path d="M56.2074 68.1108H54.8778C54.8267 67.8267 54.7315 67.5767 54.5923 67.3608C54.4531 67.1449 54.2827 66.9616 54.081 66.8111C53.8793 66.6605 53.6534 66.5469 53.4034 66.4702C53.1563 66.3935 52.8935 66.3551 52.6151 66.3551C52.1122 66.3551 51.6619 66.4815 51.2642 66.7344C50.8693 66.9872 50.5568 67.358 50.3267 67.8466C50.0994 68.3352 49.9858 68.9318 49.9858 69.6364C49.9858 70.3466 50.0994 70.946 50.3267 71.4347C50.5568 71.9233 50.8707 72.2926 51.2685 72.5426C51.6662 72.7926 52.1136 72.9176 52.6108 72.9176C52.8864 72.9176 53.1477 72.8807 53.3949 72.8068C53.6449 72.7301 53.8707 72.6179 54.0724 72.4702C54.2741 72.3224 54.4446 72.142 54.5838 71.929C54.7259 71.7131 54.8239 71.4659 54.8778 71.1875L56.2074 71.1918C56.1364 71.6207 55.9986 72.0156 55.794 72.3764C55.5923 72.7344 55.3324 73.044 55.0142 73.3054C54.6989 73.5639 54.3381 73.7642 53.9318 73.9062C53.5256 74.0483 53.0824 74.1193 52.6023 74.1193C51.8466 74.1193 51.1733 73.9403 50.5824 73.5824C49.9915 73.2216 49.5256 72.706 49.1847 72.0355C48.8466 71.3651 48.6776 70.5653 48.6776 69.6364C48.6776 68.7045 48.848 67.9048 49.1889 67.2372C49.5298 66.5668 49.9957 66.0526 50.5866 65.6946C51.1776 65.3338 51.8494 65.1534 52.6023 65.1534C53.0653 65.1534 53.4972 65.2202 53.8977 65.3537C54.3011 65.4844 54.6634 65.6776 54.9844 65.9332C55.3054 66.1861 55.571 66.4957 55.7812 66.8622C55.9915 67.2259 56.1335 67.642 56.2074 68.1108ZM57.6808 74V67.4545H58.9123V68.4943H58.9805C59.0998 68.142 59.31 67.8651 59.6112 67.6634C59.9151 67.4588 60.2589 67.3565 60.6424 67.3565C60.7219 67.3565 60.8157 67.3594 60.9237 67.3651C61.0344 67.3707 61.1211 67.3778 61.1836 67.3864V68.6051C61.1325 68.5909 61.0415 68.5753 60.9109 68.5582C60.7802 68.5384 60.6495 68.5284 60.5188 68.5284C60.2177 68.5284 59.9492 68.5923 59.7134 68.7202C59.4805 68.8452 59.2958 69.0199 59.1594 69.2443C59.0231 69.4659 58.9549 69.7187 58.9549 70.0028V74H57.6808ZM64.8729 74.1321C64.228 74.1321 63.6726 73.9943 63.2067 73.7188C62.7436 73.4403 62.3857 73.0497 62.1328 72.5469C61.8828 72.0412 61.7578 71.4489 61.7578 70.7699C61.7578 70.0994 61.8828 69.5085 62.1328 68.9972C62.3857 68.4858 62.7379 68.0866 63.1896 67.7997C63.6442 67.5128 64.1754 67.3693 64.7834 67.3693C65.1527 67.3693 65.5107 67.4304 65.8572 67.5526C66.2038 67.6747 66.5149 67.8665 66.7905 68.1278C67.0661 68.3892 67.2834 68.7287 67.4425 69.1463C67.6016 69.5611 67.6811 70.0653 67.6811 70.6591V71.1108H62.478V70.1562H66.4325C66.4325 69.821 66.3643 69.5241 66.228 69.2656C66.0916 69.0043 65.8999 68.7983 65.6527 68.6477C65.4084 68.4972 65.1214 68.4219 64.7919 68.4219C64.4339 68.4219 64.1214 68.5099 63.8544 68.6861C63.5902 68.8594 63.3857 69.0866 63.2408 69.3679C63.0987 69.6463 63.0277 69.9489 63.0277 70.2756V71.0213C63.0277 71.4588 63.1044 71.831 63.2578 72.1378C63.4141 72.4446 63.6314 72.679 63.9098 72.8409C64.1882 73 64.5135 73.0795 64.8857 73.0795C65.1271 73.0795 65.3473 73.0455 65.5462 72.9773C65.745 72.9062 65.9169 72.8011 66.0618 72.6619C66.2067 72.5227 66.3175 72.3509 66.3942 72.1463L67.6001 72.3636C67.5036 72.7187 67.3303 73.0298 67.0803 73.2969C66.8331 73.5611 66.522 73.767 66.147 73.9148C65.7749 74.0597 65.3501 74.1321 64.8729 74.1321ZM70.9996 74.1449C70.5849 74.1449 70.2099 74.0682 69.8746 73.9148C69.5394 73.7585 69.2738 73.5327 69.0778 73.2372C68.8846 72.9418 68.788 72.5795 68.788 72.1506C68.788 71.7812 68.859 71.4773 69.0011 71.2386C69.1431 71 69.3349 70.8111 69.5763 70.6719C69.8178 70.5327 70.0877 70.4276 70.386 70.3565C70.6843 70.2855 70.9883 70.2315 71.2979 70.1946C71.69 70.1491 72.0082 70.1122 72.2525 70.0838C72.4968 70.0526 72.6744 70.0028 72.7852 69.9347C72.896 69.8665 72.9513 69.7557 72.9513 69.6023V69.5724C72.9513 69.2003 72.8462 68.9119 72.636 68.7074C72.4286 68.5028 72.119 68.4006 71.707 68.4006C71.2781 68.4006 70.94 68.4957 70.6928 68.6861C70.4485 68.8736 70.2795 69.0824 70.1857 69.3125L68.9883 69.0398C69.1303 68.642 69.3377 68.321 69.6104 68.0767C69.886 67.8295 70.2028 67.6506 70.5607 67.5398C70.9187 67.4261 71.2951 67.3693 71.69 67.3693C71.9513 67.3693 72.2283 67.4006 72.521 67.4631C72.8164 67.5227 73.092 67.6335 73.3477 67.7955C73.6062 67.9574 73.8178 68.1889 73.9826 68.4901C74.1474 68.7884 74.2298 69.1761 74.2298 69.6534V74H72.9854V73.1051H72.9343C72.8519 73.2699 72.7283 73.4318 72.5636 73.5909C72.3988 73.75 72.1871 73.8821 71.9286 73.9872C71.6701 74.0923 71.3604 74.1449 70.9996 74.1449ZM71.2766 73.1222C71.6289 73.1222 71.93 73.0526 72.18 72.9134C72.4329 72.7741 72.6246 72.5923 72.7553 72.3679C72.8888 72.1406 72.9556 71.8977 72.9556 71.6392V70.7955C72.9102 70.8409 72.8221 70.8835 72.6914 70.9233C72.5636 70.9602 72.4173 70.9929 72.2525 71.0213C72.0877 71.0469 71.9272 71.071 71.771 71.0938C71.6147 71.1136 71.484 71.1307 71.3789 71.1449C71.1317 71.1761 70.9059 71.2287 70.7013 71.3026C70.4996 71.3764 70.3377 71.483 70.2156 71.6222C70.0962 71.7585 70.0366 71.9403 70.0366 72.1676C70.0366 72.483 70.1531 72.7216 70.386 72.8835C70.619 73.0426 70.9158 73.1222 71.2766 73.1222ZM78.9822 67.4545V68.4773H75.407V67.4545H78.9822ZM76.3658 65.8864H77.6399V72.0781C77.6399 72.3253 77.6768 72.5114 77.7507 72.6364C77.8246 72.7585 77.9197 72.8423 78.0362 72.8878C78.1555 72.9304 78.2848 72.9517 78.424 72.9517C78.5263 72.9517 78.6158 72.9446 78.6925 72.9304C78.7692 72.9162 78.8288 72.9048 78.8714 72.8963L79.1016 73.9489C79.0277 73.9773 78.9226 74.0057 78.7862 74.0341C78.6499 74.0653 78.4794 74.0824 78.2749 74.0852C77.9396 74.0909 77.6271 74.0312 77.3374 73.9062C77.0476 73.7812 76.8132 73.5881 76.6342 73.3267C76.4553 73.0653 76.3658 72.7372 76.3658 72.3423V65.8864ZM83.1424 74.1321C82.4975 74.1321 81.9421 73.9943 81.4762 73.7188C81.0131 73.4403 80.6552 73.0497 80.4023 72.5469C80.1523 72.0412 80.0273 71.4489 80.0273 70.7699C80.0273 70.0994 80.1523 69.5085 80.4023 68.9972C80.6552 68.4858 81.0075 68.0866 81.4592 67.7997C81.9137 67.5128 82.445 67.3693 83.0529 67.3693C83.4222 67.3693 83.7802 67.4304 84.1268 67.5526C84.4734 67.6747 84.7844 67.8665 85.06 68.1278C85.3356 68.3892 85.5529 68.7287 85.712 69.1463C85.8711 69.5611 85.9506 70.0653 85.9506 70.6591V71.1108H80.7475V70.1562H84.7021C84.7021 69.821 84.6339 69.5241 84.4975 69.2656C84.3612 69.0043 84.1694 68.7983 83.9222 68.6477C83.6779 68.4972 83.391 68.4219 83.0614 68.4219C82.7035 68.4219 82.391 68.5099 82.1239 68.6861C81.8597 68.8594 81.6552 69.0866 81.5103 69.3679C81.3683 69.6463 81.2972 69.9489 81.2972 70.2756V71.0213C81.2972 71.4588 81.3739 71.831 81.5273 72.1378C81.6836 72.4446 81.9009 72.679 82.1793 72.8409C82.4577 73 82.783 73.0795 83.1552 73.0795C83.3967 73.0795 83.6168 73.0455 83.8157 72.9773C84.0146 72.9062 84.1864 72.8011 84.3313 72.6619C84.4762 72.5227 84.587 72.3509 84.6637 72.1463L85.8697 72.3636C85.7731 72.7187 85.5998 73.0298 85.3498 73.2969C85.1026 73.5611 84.7915 73.767 84.4165 73.9148C84.0444 74.0597 83.6197 74.1321 83.1424 74.1321ZM90.4038 74V73.1264L93.9492 68.6222V68.5625H90.5188V67.4545H95.5387V68.3835L92.1296 72.8324V72.892H95.658V74H90.4038ZM99.7308 74.1321C99.1172 74.1321 98.5817 73.9915 98.1243 73.7102C97.6669 73.429 97.3118 73.0355 97.0589 72.5298C96.8061 72.0241 96.6797 71.4332 96.6797 70.7571C96.6797 70.0781 96.8061 69.4844 97.0589 68.9759C97.3118 68.4673 97.6669 68.0724 98.1243 67.7912C98.5817 67.5099 99.1172 67.3693 99.7308 67.3693C100.344 67.3693 100.88 67.5099 101.337 67.7912C101.795 68.0724 102.15 68.4673 102.403 68.9759C102.656 69.4844 102.782 70.0781 102.782 70.7571C102.782 71.4332 102.656 72.0241 102.403 72.5298C102.15 73.0355 101.795 73.429 101.337 73.7102C100.88 73.9915 100.344 74.1321 99.7308 74.1321ZM99.7351 73.0625C100.133 73.0625 100.462 72.9574 100.724 72.7472C100.985 72.5369 101.178 72.2571 101.303 71.9077C101.431 71.5582 101.495 71.1733 101.495 70.7528C101.495 70.3352 101.431 69.9517 101.303 69.6023C101.178 69.25 100.985 68.9673 100.724 68.7543C100.462 68.5412 100.133 68.4347 99.7351 68.4347C99.3345 68.4347 99.0021 68.5412 98.7379 68.7543C98.4766 68.9673 98.282 69.25 98.1541 69.6023C98.0291 69.9517 97.9666 70.3352 97.9666 70.7528C97.9666 71.1733 98.0291 71.5582 98.1541 71.9077C98.282 72.2571 98.4766 72.5369 98.7379 72.7472C99.0021 72.9574 99.3345 73.0625 99.7351 73.0625ZM105.478 70.1136V74H104.204V67.4545H105.427V68.5199H105.508C105.659 68.1733 105.895 67.8949 106.216 67.6847C106.539 67.4744 106.947 67.3693 107.439 67.3693C107.885 67.3693 108.275 67.4631 108.61 67.6506C108.946 67.8352 109.206 68.1108 109.39 68.4773C109.575 68.8437 109.667 69.2969 109.667 69.8366V74H108.393V69.9901C108.393 69.5156 108.27 69.1449 108.022 68.8778C107.775 68.608 107.436 68.473 107.004 68.473C106.708 68.473 106.446 68.5369 106.216 68.6648C105.988 68.7926 105.808 68.9801 105.674 69.2273C105.544 69.4716 105.478 69.767 105.478 70.1136ZM114.197 74.1321C113.552 74.1321 112.997 73.9943 112.531 73.7188C112.068 73.4403 111.71 73.0497 111.457 72.5469C111.207 72.0412 111.082 71.4489 111.082 70.7699C111.082 70.0994 111.207 69.5085 111.457 68.9972C111.71 68.4858 112.062 68.0866 112.514 67.7997C112.968 67.5128 113.5 67.3693 114.108 67.3693C114.477 67.3693 114.835 67.4304 115.181 67.5526C115.528 67.6747 115.839 67.8665 116.115 68.1278C116.39 68.3892 116.608 68.7287 116.767 69.1463C116.926 69.5611 117.005 70.0653 117.005 70.6591V71.1108H111.802V70.1562H115.757C115.757 69.821 115.689 69.5241 115.552 69.2656C115.416 69.0043 115.224 68.7983 114.977 68.6477C114.733 68.4972 114.446 68.4219 114.116 68.4219C113.758 68.4219 113.446 68.5099 113.179 68.6861C112.914 68.8594 112.71 69.0866 112.565 69.3679C112.423 69.6463 112.352 69.9489 112.352 70.2756V71.0213C112.352 71.4588 112.429 71.831 112.582 72.1378C112.738 72.4446 112.956 72.679 113.234 72.8409C113.512 73 113.838 73.0795 114.21 73.0795C114.451 73.0795 114.672 73.0455 114.87 72.9773C115.069 72.9062 115.241 72.8011 115.386 72.6619C115.531 72.5227 115.642 72.3509 115.718 72.1463L116.924 72.3636C116.828 72.7187 116.654 73.0298 116.404 73.2969C116.157 73.5611 115.846 73.767 115.471 73.9148C115.099 74.0597 114.674 74.1321 114.197 74.1321Z" fill="#161639"/>
<rect x="48" y="82" width="98" height="8" rx="4" fill="#EFEFF1"/>
<path d="M49.696 122H48.2983L51.4389 113.273H52.9602L56.1009 122H54.7031L52.2358 114.858H52.1676L49.696 122ZM49.9304 118.582H54.4645V119.69H49.9304V118.582ZM59.6037 122.128C59.0753 122.128 58.6037 121.993 58.1889 121.723C57.777 121.45 57.4531 121.062 57.2173 120.56C56.9844 120.054 56.8679 119.447 56.8679 118.74C56.8679 118.033 56.9858 117.428 57.2216 116.925C57.4602 116.422 57.7869 116.037 58.2017 115.77C58.6165 115.503 59.0866 115.369 59.6122 115.369C60.0185 115.369 60.3452 115.438 60.5923 115.574C60.8423 115.707 61.0355 115.864 61.1719 116.043C61.3111 116.222 61.419 116.379 61.4957 116.516H61.5724V113.273H62.8466V122H61.6023V120.982H61.4957C61.419 121.121 61.3082 121.28 61.1634 121.459C61.0213 121.638 60.8253 121.794 60.5753 121.928C60.3253 122.061 60.0014 122.128 59.6037 122.128ZM59.8849 121.041C60.2514 121.041 60.5611 120.945 60.8139 120.751C61.0696 120.555 61.2628 120.284 61.3935 119.938C61.527 119.591 61.5938 119.187 61.5938 118.727C61.5938 118.273 61.5284 117.875 61.3977 117.534C61.267 117.193 61.0753 116.928 60.8224 116.737C60.5696 116.547 60.2571 116.452 59.8849 116.452C59.5014 116.452 59.1818 116.551 58.9261 116.75C58.6705 116.949 58.4773 117.22 58.3466 117.564C58.2188 117.908 58.1548 118.295 58.1548 118.727C58.1548 119.165 58.2202 119.558 58.3509 119.908C58.4815 120.257 58.6747 120.534 58.9304 120.739C59.1889 120.94 59.5071 121.041 59.8849 121.041ZM67.1154 122.128C66.587 122.128 66.1154 121.993 65.7006 121.723C65.2887 121.45 64.9648 121.062 64.729 120.56C64.4961 120.054 64.3796 119.447 64.3796 118.74C64.3796 118.033 64.4975 117.428 64.7333 116.925C64.9719 116.422 65.2987 116.037 65.7134 115.77C66.1282 115.503 66.5984 115.369 67.1239 115.369C67.5302 115.369 67.8569 115.438 68.104 115.574C68.354 115.707 68.5472 115.864 68.6836 116.043C68.8228 116.222 68.9308 116.379 69.0075 116.516H69.0842V113.273H70.3583V122H69.114V120.982H69.0075C68.9308 121.121 68.82 121.28 68.6751 121.459C68.533 121.638 68.337 121.794 68.087 121.928C67.837 122.061 67.5131 122.128 67.1154 122.128ZM67.3967 121.041C67.7631 121.041 68.0728 120.945 68.3256 120.751C68.5813 120.555 68.7745 120.284 68.9052 119.938C69.0387 119.591 69.1055 119.187 69.1055 118.727C69.1055 118.273 69.0401 117.875 68.9094 117.534C68.7788 117.193 68.587 116.928 68.3342 116.737C68.0813 116.547 67.7688 116.452 67.3967 116.452C67.0131 116.452 66.6935 116.551 66.4379 116.75C66.1822 116.949 65.989 117.22 65.8583 117.564C65.7305 117.908 65.6665 118.295 65.6665 118.727C65.6665 119.165 65.7319 119.558 65.8626 119.908C65.9933 120.257 66.1864 120.534 66.4421 120.739C66.7006 120.94 67.0188 121.041 67.3967 121.041ZM75.3526 122V115.455H76.6268V122H75.3526ZM75.9961 114.445C75.7745 114.445 75.5842 114.371 75.4251 114.223C75.2688 114.072 75.1907 113.893 75.1907 113.686C75.1907 113.476 75.2688 113.297 75.4251 113.149C75.5842 112.999 75.7745 112.923 75.9961 112.923C76.2177 112.923 76.4066 112.999 76.5629 113.149C76.7219 113.297 76.8015 113.476 76.8015 113.686C76.8015 113.893 76.7219 114.072 76.5629 114.223C76.4066 114.371 76.2177 114.445 75.9961 114.445ZM81.3963 115.455V116.477H77.821V115.455H81.3963ZM78.7798 113.886H80.054V120.078C80.054 120.325 80.0909 120.511 80.1648 120.636C80.2386 120.759 80.3338 120.842 80.4503 120.888C80.5696 120.93 80.6989 120.952 80.8381 120.952C80.9403 120.952 81.0298 120.945 81.1065 120.93C81.1832 120.916 81.2429 120.905 81.2855 120.896L81.5156 121.949C81.4418 121.977 81.3366 122.006 81.2003 122.034C81.0639 122.065 80.8935 122.082 80.6889 122.085C80.3537 122.091 80.0412 122.031 79.7514 121.906C79.4616 121.781 79.2273 121.588 79.0483 121.327C78.8693 121.065 78.7798 120.737 78.7798 120.342V113.886ZM85.5565 122.132C84.9116 122.132 84.3562 121.994 83.8903 121.719C83.4272 121.44 83.0692 121.05 82.8164 120.547C82.5664 120.041 82.4414 119.449 82.4414 118.77C82.4414 118.099 82.5664 117.509 82.8164 116.997C83.0692 116.486 83.4215 116.087 83.8732 115.8C84.3278 115.513 84.859 115.369 85.467 115.369C85.8363 115.369 86.1942 115.43 86.5408 115.553C86.8874 115.675 87.1985 115.866 87.4741 116.128C87.7496 116.389 87.967 116.729 88.1261 117.146C88.2852 117.561 88.3647 118.065 88.3647 118.659V119.111H83.1616V118.156H87.1161C87.1161 117.821 87.0479 117.524 86.9116 117.266C86.7752 117.004 86.5835 116.798 86.3363 116.648C86.092 116.497 85.805 116.422 85.4755 116.422C85.1175 116.422 84.805 116.51 84.538 116.686C84.2738 116.859 84.0692 117.087 83.9244 117.368C83.7823 117.646 83.7113 117.949 83.7113 118.276V119.021C83.7113 119.459 83.788 119.831 83.9414 120.138C84.0977 120.445 84.315 120.679 84.5934 120.841C84.8718 121 85.1971 121.08 85.5692 121.08C85.8107 121.08 86.0309 121.045 86.2298 120.977C86.4286 120.906 86.6005 120.801 86.7454 120.662C86.8903 120.523 87.0011 120.351 87.0778 120.146L88.2837 120.364C88.1871 120.719 88.0138 121.03 87.7638 121.297C87.5167 121.561 87.2056 121.767 86.8306 121.915C86.4585 122.06 86.0337 122.132 85.5565 122.132ZM89.7784 122V115.455H91.0014V116.52H91.0824C91.2188 116.159 91.4418 115.878 91.7514 115.676C92.0611 115.472 92.4318 115.369 92.8636 115.369C93.3011 115.369 93.6676 115.472 93.9631 115.676C94.2614 115.881 94.4815 116.162 94.6236 116.52H94.6918C94.848 116.17 95.0966 115.892 95.4375 115.685C95.7784 115.474 96.1847 115.369 96.6562 115.369C97.25 115.369 97.7344 115.555 98.1094 115.928C98.4872 116.3 98.6761 116.861 98.6761 117.611V122H97.402V117.73C97.402 117.287 97.2813 116.966 97.0398 116.767C96.7983 116.568 96.5099 116.469 96.1747 116.469C95.7599 116.469 95.4375 116.597 95.2074 116.852C94.9773 117.105 94.8622 117.43 94.8622 117.828V122H93.5923V117.649C93.5923 117.294 93.4815 117.009 93.2599 116.793C93.0384 116.577 92.75 116.469 92.3949 116.469C92.1534 116.469 91.9304 116.533 91.7259 116.661C91.5241 116.786 91.3608 116.96 91.2358 117.185C91.1136 117.409 91.0526 117.669 91.0526 117.964V122H89.7784Z" fill="#161639"/>
<rect x="48" y="130" width="98" height="8" rx="4" fill="#EFEFF1"/>
</svg>
