<svg width="48" height="48" viewBox="0 0 48 48" fill="none" xmlns="http://www.w3.org/2000/svg">
<path fill-rule="evenodd" clip-rule="evenodd" d="M5.04182 14.1288C5.45676 13.4118 6.3744 13.1669 7.09141 13.5819L23.9997 23.3668L40.7882 13.6421C41.505 13.2269 42.4228 13.4714 42.838 14.1882C43.2532 14.9051 43.0087 15.8228 42.2919 16.238L24.7519 26.3981C24.2871 26.6673 23.7137 26.6675 23.2487 26.3984L5.58877 16.1784C4.87175 15.7635 4.62688 14.8458 5.04182 14.1288Z" fill="#4F7EF7"/>
<path fill-rule="evenodd" clip-rule="evenodd" d="M24 23.5801C24.8284 23.5801 25.5 24.2517 25.5 25.0801V43.2201C25.5 44.0485 24.8284 44.7201 24 44.7201C23.1716 44.7201 22.5 44.0485 22.5 43.2201V25.0801C22.5 24.2517 23.1716 23.5801 24 23.5801Z" fill="#4F7EF7"/>
<path fill-rule="evenodd" clip-rule="evenodd" d="M28.8709 3.64996C28.8721 3.65065 28.8733 3.65133 28.8746 3.65202L39.5469 9.56779C39.5471 9.5679 39.5467 9.56768 39.5469 9.56779C41.0467 10.3984 42.323 11.7947 43.2198 13.3156C44.1167 14.8366 44.7202 16.6279 44.7202 18.34V25.6601C44.7202 26.4885 44.0486 27.1601 43.2202 27.1601C42.3918 27.1601 41.7202 26.4885 41.7202 25.6601V18.34C41.7202 17.2921 41.3338 16.0234 40.6356 14.8394C39.9376 13.6555 39.0135 12.7017 38.0936 12.1923L27.4059 6.26799C26.5453 5.78483 25.3147 5.5 24.0002 5.5C22.6858 5.5 21.4552 5.78481 20.5945 6.26798L20.5875 6.27195L9.90745 12.192C8.98753 12.7013 8.06292 13.6555 7.36486 14.8394C6.66672 16.0234 6.28027 17.2921 6.28027 18.34V29.6601C6.28027 30.708 6.66672 31.9767 7.36486 33.1607C8.06292 34.3445 8.98694 35.2984 9.90686 35.8078L20.5945 41.7321C21.4551 42.2153 22.6858 42.5 24.0002 42.5C25.3147 42.5 26.5453 42.2153 27.406 41.7321C28.1283 41.3266 29.0427 41.5834 29.4482 42.3058C29.8538 43.0281 29.5969 43.9425 28.8746 44.3481C27.4552 45.1449 25.6858 45.5 24.0002 45.5C22.3161 45.5 20.5483 45.1455 19.1295 44.3501C19.1283 44.3494 19.1271 44.3487 19.1259 44.3481L8.45361 38.4323C8.45342 38.4322 8.45381 38.4324 8.45361 38.4323C6.95379 37.6016 5.67745 36.2053 4.78065 34.6844C3.88381 33.1635 3.28027 31.3722 3.28027 29.6601V18.34C3.28027 16.6279 3.88381 14.8366 4.78065 13.3156C5.67745 11.7947 6.9532 10.3988 8.45302 9.56812L19.1296 3.64996C20.5484 2.85457 22.3161 2.5 24.0002 2.5C25.6844 2.5 27.4521 2.85457 28.8709 3.64996Z" fill="#4F7EF7"/>
<g opacity="0.4">
<path fill-rule="evenodd" clip-rule="evenodd" d="M38.4 31.5C35.6938 31.5 33.5 33.6938 33.5 36.4C33.5 39.1062 35.6938 41.3 38.4 41.3C41.1062 41.3 43.3 39.1062 43.3 36.4C43.3 33.6938 41.1062 31.5 38.4 31.5ZM30.5 36.4C30.5 32.037 34.037 28.5 38.4 28.5C42.7631 28.5 46.3 32.037 46.3 36.4C46.3 40.7631 42.7631 44.3 38.4 44.3C34.037 44.3 30.5 40.7631 30.5 36.4Z" fill="#4F7EF7"/>
<path fill-rule="evenodd" clip-rule="evenodd" d="M42.9393 40.9393C43.5251 40.3536 44.4749 40.3536 45.0607 40.9393L47.0607 42.9393C47.6464 43.5251 47.6464 44.4749 47.0607 45.0607C46.4749 45.6464 45.5251 45.6464 44.9393 45.0607L42.9393 43.0607C42.3536 42.4749 42.3536 41.5251 42.9393 40.9393Z" fill="#4F7EF7"/>
</g>
</svg>
