<svg width="48" height="49" viewBox="0 0 48 49" fill="none" xmlns="http://www.w3.org/2000/svg">
<path fill-rule="evenodd" clip-rule="evenodd" d="M7.26707 6.47936C6.26498 7.08953 5.43945 8.42135 5.43945 10.6807V40.3607C5.43945 41.7844 6.63974 43.0007 8.15945 43.0007H23.4995V15.3207C23.4995 14.6095 23.2239 13.7285 22.7005 12.898C22.1776 12.0684 21.4952 11.4287 20.8399 11.1079L11.9599 6.74791C11.9597 6.74782 11.9601 6.748 11.9599 6.74791C9.87975 5.72974 8.27643 5.86476 7.26707 6.47936ZM5.70684 3.917C7.84239 2.61665 10.5794 2.73191 13.279 4.05345L22.159 8.41347C22.1592 8.41357 22.1588 8.41338 22.159 8.41347C23.4235 9.0327 24.4914 10.1131 25.2384 11.2984C25.985 12.4829 26.4995 13.9119 26.4995 15.3207V44.5007C26.4995 45.3291 25.8279 46.0007 24.9995 46.0007H8.15945C5.03917 46.0007 2.43945 43.497 2.43945 40.3607V10.6807C2.43945 7.70001 3.56393 5.22182 5.70684 3.917Z" fill="#4F7EF7"/>
<path fill-rule="evenodd" clip-rule="evenodd" d="M24.0556 20.1748C24.4074 19.89 24.869 19.7792 25.3117 19.8734L26.268 20.0769L35.2641 22.0961L35.268 22.097L39.3214 22.9955C39.3219 22.9956 39.3209 22.9954 39.3214 22.9955C40.7743 23.3149 42.2962 23.8885 43.4696 25.0719C44.6623 26.2747 45.3329 27.9395 45.4159 30.1119C45.4401 30.3128 45.4397 30.4927 45.4395 30.5962C45.4395 30.6049 45.4395 30.613 45.4395 30.6206V38.1806C45.4395 40.5427 44.8948 42.5866 43.4602 44.0212C42.0255 45.4559 39.9817 46.0006 37.6195 46.0006H24.9995C24.1711 46.0006 23.4995 45.329 23.4995 44.5006V21.3406C23.4995 20.888 23.7039 20.4596 24.0556 20.1748ZM26.4995 23.2036L34.611 25.0242L34.6149 25.025L38.6749 25.925L38.6776 25.9256C39.8643 26.1864 40.7433 26.5831 41.3394 27.1843C41.9018 27.7515 42.3694 28.6599 42.4202 30.2874C42.4222 30.3499 42.4281 30.4122 42.4378 30.474C42.4379 30.4762 42.4381 30.4792 42.4382 30.483C42.4387 30.4941 42.439 30.5097 42.4393 30.5333L42.4395 30.6206V38.1806C42.4395 40.1384 41.9842 41.2546 41.3389 41.8999C40.6935 42.5453 39.5774 43.0006 37.6195 43.0006H26.4995V23.2036Z" fill="#4F7EF7"/>
<path opacity="0.4" fill-rule="evenodd" clip-rule="evenodd" d="M9.49951 18.5007C9.49951 17.6723 10.1711 17.0007 10.9995 17.0007H17.9395C18.7679 17.0007 19.4395 17.6723 19.4395 18.5007C19.4395 19.3292 18.7679 20.0007 17.9395 20.0007H10.9995C10.1711 20.0007 9.49951 19.3292 9.49951 18.5007Z" fill="#4F7EF7"/>
<path opacity="0.4" fill-rule="evenodd" clip-rule="evenodd" d="M9.49951 26.5007C9.49951 25.6723 10.1711 25.0007 10.9995 25.0007H17.9395C18.7679 25.0007 19.4395 25.6723 19.4395 26.5007C19.4395 27.3292 18.7679 28.0007 17.9395 28.0007H10.9995C10.1711 28.0007 9.49951 27.3292 9.49951 26.5007Z" fill="#4F7EF7"/>
<path fill-rule="evenodd" clip-rule="evenodd" d="M25.0021 20.3697C25.3577 20.0851 25.8235 19.9774 26.2679 20.0772L35.2679 22.0972C35.9528 22.2509 36.4395 22.8589 36.4395 23.5608V30.0008C36.4395 33.3092 33.7479 36.0008 30.4395 36.0008C27.131 36.0008 24.4395 33.3092 24.4395 30.0008V21.5408C24.4395 21.0852 24.6465 20.6544 25.0021 20.3697ZM27.4395 23.4148V30.0008C27.4395 31.6524 28.7879 33.0008 30.4395 33.0008C32.091 33.0008 33.4395 31.6524 33.4395 30.0008V24.7614L27.4395 23.4148Z" fill="#4F7EF7"/>
<path fill-rule="evenodd" clip-rule="evenodd" d="M34.0006 22.391C34.3553 22.1063 34.82 21.9979 35.2641 22.0964L39.3213 22.9957C39.3218 22.9958 39.3223 22.9959 39.3227 22.9961C40.7757 23.3154 42.2961 23.8887 43.4696 25.0721C44.6772 26.2899 45.3496 27.9815 45.4187 30.194C45.42 30.235 45.4196 30.276 45.4175 30.317C45.2574 33.466 42.647 36.0008 39.4395 36.0008C36.131 36.0008 33.4395 33.3092 33.4395 30.0008V23.5608C33.4395 23.106 33.6458 22.6757 34.0006 22.391ZM36.4395 25.4297V30.0008C36.4395 31.6524 37.7879 33.0008 39.4395 33.0008C41.0124 33.0008 42.3094 31.7664 42.4179 30.2222C42.3567 28.6357 41.8942 27.744 41.3393 27.1845C40.7432 26.5833 39.8642 26.1866 38.6776 25.9259L38.6748 25.9253L38.6748 25.9253L36.4395 25.4297Z" fill="#4F7EF7"/>
</svg>
