<svg width="48" height="49" viewBox="0 0 48 49" fill="none" xmlns="http://www.w3.org/2000/svg">
<path fill-rule="evenodd" clip-rule="evenodd" d="M31.3855 18.1712C31.4566 17.3458 32.1833 16.7343 33.0087 16.8054C36.8326 17.1347 39.8275 18.3106 41.8148 20.7598C43.7685 23.1675 44.52 26.5325 44.52 30.7199V30.9799C44.52 35.5982 43.6044 39.2218 41.1731 41.6531C38.7419 44.0843 35.1183 44.9999 30.5 44.9999H17.48C12.8616 44.9999 9.23806 44.0843 6.8068 41.6531C4.37554 39.2218 3.45996 35.5982 3.45996 30.9799V30.7199C3.45996 26.563 4.20137 23.2182 6.12366 20.8154C8.08062 18.3691 11.0318 17.1777 14.8007 16.8264C15.6256 16.7495 16.3566 17.3558 16.4335 18.1807C16.5104 19.0055 15.904 19.7365 15.0792 19.8134C11.7681 20.1221 9.7293 21.1106 8.46626 22.6894C7.16855 24.3116 6.45996 26.8368 6.45996 30.7199V30.9799C6.45996 35.3015 7.33439 37.938 8.92812 39.5317C10.5219 41.1255 13.1583 41.9999 17.48 41.9999H30.5C34.8216 41.9999 37.4581 41.1255 39.0518 39.5317C40.6455 37.938 41.52 35.3015 41.52 30.9799V30.7199C41.52 26.8072 40.8015 24.2722 39.4852 22.65C38.2025 21.0692 36.1273 20.0851 32.7513 19.7944C31.9259 19.7233 31.3144 18.9966 31.3855 18.1712Z" fill="#4F7EF7"/>
<g opacity="0.4">
<path fill-rule="evenodd" clip-rule="evenodd" d="M24 6.24023C24.8284 6.24023 25.5 6.91181 25.5 7.74023V30.5002C25.5 31.3287 24.8284 32.0002 24 32.0002C23.1716 32.0002 22.5 31.3287 22.5 30.5002V7.74023C22.5 6.91181 23.1716 6.24023 24 6.24023Z" fill="#4F7EF7"/>
<path fill-rule="evenodd" clip-rule="evenodd" d="M22.9401 4.43934C23.5259 3.85355 24.4757 3.85355 25.0614 4.43934L31.7614 11.1393C32.3472 11.7251 32.3472 12.6749 31.7614 13.2607C31.1757 13.8464 30.2259 13.8464 29.6401 13.2607L24.0008 7.62132L18.3614 13.2607C17.7757 13.8464 16.8259 13.8464 16.2401 13.2607C15.6543 12.6749 15.6543 11.7251 16.2401 11.1393L22.9401 4.43934Z" fill="#4F7EF7"/>
</g>
</svg>
