<svg width="48" height="49" viewBox="0 0 48 49" fill="none" xmlns="http://www.w3.org/2000/svg">
<path fill-rule="evenodd" clip-rule="evenodd" d="M30.9127 5.0303C33.2301 2.38498 37.5799 4.04323 37.5799 7.53995V20.4399H42.2599C45.5466 20.4399 47.3014 24.2989 45.126 26.7709L45.1259 26.771L29.9888 43.9677C29.9884 43.9681 29.988 43.9686 29.9876 43.969C27.6703 46.6152 23.3199 44.9569 23.3199 41.4599V28.5599H18.6399C15.3604 28.5599 13.6339 24.6982 15.7664 22.2376L15.774 22.2288L15.774 22.2289L30.911 5.03219C30.9116 5.03156 30.9121 5.03093 30.9127 5.0303ZM34.5799 7.53995C34.5799 6.79749 33.6518 6.4557 33.1688 7.0077L33.1658 7.01103L18.0306 24.2057C17.5676 24.7451 17.9609 25.5599 18.6399 25.5599H24.8199C25.6484 25.5599 26.3199 26.2315 26.3199 27.0599V41.4599C26.3199 42.2024 27.2481 42.5442 27.731 41.9922L27.734 41.9889L42.8738 24.789C42.8739 24.789 42.8739 24.7889 42.874 24.7889C43.3384 24.2609 42.9732 23.4399 42.2599 23.4399H36.0799C35.2515 23.4399 34.5799 22.7684 34.5799 21.9399V7.53995Z" fill="#4F7EF7"/>
<path opacity="0.4" fill-rule="evenodd" clip-rule="evenodd" d="M1.5 8.5C1.5 7.67157 2.17157 7 3 7H17C17.8284 7 18.5 7.67157 18.5 8.5C18.5 9.32843 17.8284 10 17 10H3C2.17157 10 1.5 9.32843 1.5 8.5Z" fill="#4F7EF7"/>
<path opacity="0.4" fill-rule="evenodd" clip-rule="evenodd" d="M1.5 40.5C1.5 39.6716 2.17157 39 3 39H15C15.8284 39 16.5 39.6716 16.5 40.5C16.5 41.3284 15.8284 42 15 42H3C2.17157 42 1.5 41.3284 1.5 40.5Z" fill="#4F7EF7"/>
<path opacity="0.4" fill-rule="evenodd" clip-rule="evenodd" d="M1.5 24.5C1.5 23.6716 2.17157 23 3 23H9C9.82843 23 10.5 23.6716 10.5 24.5C10.5 25.3284 9.82843 26 9 26H3C2.17157 26 1.5 25.3284 1.5 24.5Z" fill="#4F7EF7"/>
</svg>
