<svg width="1200" height="464" viewBox="0 0 1200 464" fill="none" xmlns="http://www.w3.org/2000/svg">
<g clip-path="url(#clip0_17_392)">
<path d="M0 -81.4166C190.256 -4.67216 292.81 96.5447 351.957 179.347C401.262 248.38 400.387 276.619 452.742 328.123C566.356 439.885 783.996 516.955 889.477 420.911C941.437 373.599 922.217 313.643 947.07 200.142C969.429 98.0403 1027.24 -42.3858 1188.63 -195" stroke="white" stroke-opacity="0.05" stroke-width="5" stroke-miterlimit="10"/>
<path d="M0.382812 -56.6561C185.438 9.29984 286.967 104.52 346.083 182.013C395.823 247.235 399.868 273.316 455.478 323.934C572.135 430.122 776.527 504.05 882.155 414.435C936.565 368.279 924.188 309.348 953.308 196.18C978.947 96.5481 1037.94 -41.4767 1196.55 -192.722" stroke="white" stroke-opacity="0.05" stroke-width="5" stroke-miterlimit="10"/>
<path d="M0.761719 -31.8991C180.613 23.2718 281.195 112.52 340.215 184.678C390.494 246.15 399.255 270.016 458.22 319.746C577.663 420.482 769.38 491.316 874.847 407.962C931.822 362.927 926.076 305.112 959.557 192.221C988.372 95.0834 1048.64 -40.5573 1204.49 -190.427" stroke="white" stroke-opacity="0.05" stroke-width="5" stroke-miterlimit="10"/>
<path d="M1.14453 -7.13853C175.792 37.2472 275.527 120.544 334.351 187.364C385.234 245.132 398.547 266.74 460.98 315.554C582.971 410.98 762.545 478.775 867.549 401.485C927.21 357.576 927.883 300.923 965.819 188.259C997.677 93.6392 1059.37 -39.638 1212.41 -188.143" stroke="white" stroke-opacity="0.05" stroke-width="5" stroke-miterlimit="10"/>
<path d="M1.52344 17.6185C170.984 51.2122 269.971 128.567 328.483 190.012C380.059 244.168 397.777 263.494 463.702 311.365C588.029 401.619 755.953 466.439 860.216 395.008C922.684 352.214 929.555 296.762 972.047 184.297C1006.84 92.2018 1070.06 -38.7221 1220.31 -185.841" stroke="white" stroke-opacity="0.05" stroke-width="5" stroke-miterlimit="10"/>
<path d="M1.90649 42.3757C166.15 65.1843 264.547 136.594 322.62 192.678C374.998 243.262 396.887 260.297 466.449 307.174C592.923 392.412 749.637 454.313 852.905 388.535C918.292 346.884 931.118 292.622 978.296 180.335C1015.92 90.7612 1080.76 -37.8026 1228.24 -183.573" stroke="white" stroke-opacity="0.05" stroke-width="5" stroke-miterlimit="10"/>
<path d="M2.28125 67.1327C161.321 79.1391 259.265 144.587 316.748 195.343C370.046 242.405 395.931 257.155 469.184 302.985C597.651 383.356 743.539 442.406 845.586 382.059C913.998 341.601 932.601 288.481 984.537 176.377C1024.87 89.3067 1091.48 -36.8833 1236.16 -181.285" stroke="white" stroke-opacity="0.05" stroke-width="5" stroke-miterlimit="10"/>
<path d="M2.67969 91.8933C156.515 93.1248 254.171 152.542 310.899 198.009C365.254 241.575 394.944 254.082 471.942 298.797C602.262 374.454 737.67 430.715 838.29 375.582C909.834 336.383 933.973 284.334 990.801 172.415C1033.73 87.8352 1102.18 -35.9536 1244.08 -179" stroke="white" stroke-opacity="0.05" stroke-width="5" stroke-miterlimit="10"/>
<path d="M3.04688 116.65C151.678 107.096 249.225 160.422 305.02 200.677C360.592 240.758 393.839 251.104 474.673 294.604C606.743 365.702 731.951 419.244 830.962 369.109C905.745 331.251 935.201 280.152 997.034 168.452C1042.49 86.3322 1112.88 -35.0484 1252.02 -176.716" stroke="white" stroke-opacity="0.05" stroke-width="5" stroke-miterlimit="10"/>
<path d="M3.42578 141.397C146.857 121.058 244.472 168.188 299.152 203.332C356.072 239.914 392.705 248.16 477.412 290.406C611.121 357.085 726.375 407.972 823.647 362.622C901.74 326.215 936.332 275.919 1003.28 164.48C1051.16 84.7817 1123.59 -34.1393 1259.93 -174.442" stroke="white" stroke-opacity="0.05" stroke-width="5" stroke-miterlimit="10"/>
<path d="M3.80859 166.167C142.053 135.04 239.908 175.845 293.292 206.008C351.738 239.036 391.534 245.344 480.158 286.224C615.445 348.629 720.933 396.929 816.335 356.159C897.831 321.33 937.352 271.648 1009.53 160.528C1059.75 83.2106 1134.3 -33.2097 1267.85 -172.14" stroke="white" stroke-opacity="0.05" stroke-width="5" stroke-miterlimit="10"/>
<path d="M4.1875 190.925C137.211 149.009 235.515 183.326 287.424 208.673C347.565 238.044 390.335 242.614 482.897 282.035C619.715 340.297 715.587 386.072 809.02 349.683C893.994 316.59 938.267 267.299 1015.77 156.569C1068.26 81.5812 1145 -32.2937 1275.77 -169.859" stroke="white" stroke-opacity="0.05" stroke-width="5" stroke-miterlimit="10"/>
<path d="M4.57056 215.685C132.39 162.981 231.278 190.616 281.56 211.342C343.554 236.895 389.082 239.976 485.644 277.847C623.953 332.092 710.313 375.407 801.712 343.206C890.216 312.024 939.085 262.87 1022.02 152.607C1076.71 79.9003 1155.71 -31.3744 1283.7 -167.574" stroke="white" stroke-opacity="0.05" stroke-width="5" stroke-miterlimit="10"/>
<path d="M4.95312 240.442C127.572 176.953 227.166 197.693 275.696 214.008C339.683 235.52 387.821 237.437 488.38 273.655C628.161 323.999 705.08 364.903 794.394 336.733C886.51 307.661 939.801 258.345 1028.26 148.645C1085.11 78.1612 1166.42 -30.4653 1291.62 -165.279" stroke="white" stroke-opacity="0.05" stroke-width="5" stroke-miterlimit="10"/>
<path d="M5.32812 265.199C122.743 190.921 223.13 204.54 269.811 216.673C335.893 233.846 386.526 234.995 491.111 269.467C632.357 316.02 699.86 354.602 787.067 330.256C882.827 303.524 940.426 253.721 1034.5 144.673C1093.44 76.3534 1177.11 -29.5493 1299.53 -163.015" stroke="white" stroke-opacity="0.05" stroke-width="5" stroke-miterlimit="10"/>
<path d="M5.71094 289.96C117.939 204.893 219.136 211.154 263.96 219.339C332.191 231.798 385.255 232.652 493.868 265.275C636.572 308.155 694.669 344.445 779.77 323.783C879.199 299.637 940.997 249.001 1040.76 140.725C1101.77 74.5044 1187.83 -28.6197 1307.46 -160.717" stroke="white" stroke-opacity="0.05" stroke-width="5" stroke-miterlimit="10"/>
<path d="M6.10938 314.717C113.117 218.865 215.603 229.945 258.112 222.007C327.642 209.02 383.986 230.408 496.63 261.086C640.809 300.361 689.441 334.438 772.457 317.307C875.57 296.038 941.489 244.14 1047.01 136.762C1110.06 72.5937 1198.54 -27.7004 1315.39 -158.418" stroke="white" stroke-opacity="0.05" stroke-width="5" stroke-miterlimit="10"/>
<path d="M6.47266 339.474C108.279 232.837 211.987 233.959 252.229 224.673C322.761 208.399 382.683 228.258 499.353 256.898C645.059 292.677 684.151 324.579 765.142 310.83C871.93 292.725 941.92 239.177 1053.25 132.794C1118.33 70.611 1209.24 -26.7912 1323.31 -156.154" stroke="white" stroke-opacity="0.05" stroke-width="5" stroke-miterlimit="10"/>
<path d="M6.85156 364.234C103.455 246.806 207.896 237.578 246.361 227.338C318.162 208.228 381.401 226.203 502.096 252.723C649.331 285.058 678.795 314.834 757.827 304.374C868.261 289.757 942.303 234.106 1059.5 128.855C1126.59 68.6008 1219.95 -25.8548 1331.23 -153.846" stroke="white" stroke-opacity="0.05" stroke-width="5" stroke-miterlimit="10"/>
<path d="M7.23462 388.992C98.6337 260.778 202.097 235.654 240.501 230.004C316.144 218.9 380.144 224.234 504.842 248.528C653.652 277.504 673.349 305.187 750.519 297.891C864.538 287.099 942.648 228.872 1065.75 124.876C1134.86 66.4912 1230.67 -24.9456 1339.16 -151.578" stroke="white" stroke-opacity="0.05" stroke-width="5" stroke-miterlimit="10"/>
<path d="M7.61719 413.749C93.8124 274.75 197.317 241.478 234.633 232.673C311.353 214.57 378.894 222.354 507.581 244.336C658 270.019 667.78 295.647 743.204 291.414C860.732 284.821 942.965 223.561 1072 120.924C1143.12 64.3472 1241.37 -24.0194 1347.08 -149.283" stroke="white" stroke-opacity="0.05" stroke-width="5" stroke-miterlimit="10"/>
<path d="M7.99609 438.509C88.9908 288.722 192.208 247.31 228.765 235.338C306.12 209.994 377.664 220.557 510.324 240.141C662.396 262.589 662.077 286.183 735.892 284.935C856.813 282.876 943.255 218.107 1078.24 116.959C1151.39 62.1553 1252.07 -23.1103 1355 -147.005" stroke="white" stroke-opacity="0.05" stroke-width="5" stroke-miterlimit="10"/>
</g>
<defs>
<clipPath id="clip0_17_392">
<rect width="1200" height="464" fill="white"/>
</clipPath>
</defs>
</svg>
